<svg xmlns="http://www.w3.org/2000/svg" viewBox="0 0 512 512">
  <g transform="translate(-117.706 -446.209)scale(3.30147)">
    <circle cx="113.194" cy="212.696" r="65.268" style="opacity:1;fill:none;fill-opacity:.562814;stroke:#000;stroke-width:4.93179;stroke-linecap:round;stroke-linejoin:round;stroke-miterlimit:4;stroke-dasharray:none;stroke-dashoffset:0;stroke-opacity:1"/>
    <circle cx="112.956" cy="212.862" r="59.151" style="opacity:1;fill:none;fill-opacity:.562814;stroke:#000;stroke-width:4.46957;stroke-linecap:round;stroke-linejoin:round;stroke-miterlimit:4;stroke-dasharray:none;stroke-dashoffset:0;stroke-opacity:1"/>
    <path d="M108.17 155.679h2.318v113.964h-2.318z" style="opacity:1;fill:none;fill-opacity:.562814;stroke:#000;stroke-width:4.44571;stroke-linecap:butt;stroke-linejoin:miter;stroke-miterlimit:4;stroke-dasharray:none;stroke-dashoffset:0;stroke-opacity:1"/>
    <path d="M115.934 154.949h2.306v114.688h-2.306z" style="opacity:1;fill:none;fill-opacity:.562814;stroke:#000;stroke-width:4.44839;stroke-linecap:butt;stroke-linejoin:miter;stroke-miterlimit:4;stroke-dasharray:none;stroke-dashoffset:0;stroke-opacity:1"/>
    <path d="M171.544 68.084h5.154v94.231h-5.154z" style="opacity:1;fill:#000;fill-opacity:1;stroke:none;stroke-width:6.02769;stroke-linecap:butt;stroke-linejoin:miter;stroke-miterlimit:4;stroke-dasharray:none;stroke-dashoffset:0;stroke-opacity:1" transform="matrix(.82222 .56917 -.51972 .85433 0 0)"/>
    <path d="M80.787 199.06h89.68v4.434h-89.68z" style="opacity:1;fill:#000;fill-opacity:1;stroke:none;stroke-width:10.6751;stroke-linecap:butt;stroke-linejoin:miter;stroke-miterlimit:4;stroke-dasharray:none;stroke-dashoffset:0;stroke-opacity:1"/>
    <path d="M115.173 246.618h44.135v4.434h-44.135z" style="opacity:1;fill:#000;fill-opacity:1;stroke:none;stroke-width:7.48881;stroke-linecap:butt;stroke-linejoin:miter;stroke-miterlimit:4;stroke-dasharray:none;stroke-dashoffset:0;stroke-opacity:1"/>
    <path d="M-247.122 137.442h44.135v4.434h-44.135z" style="opacity:1;fill:#000;fill-opacity:1;stroke:none;stroke-width:7.48881;stroke-linecap:butt;stroke-linejoin:miter;stroke-miterlimit:4;stroke-dasharray:none;stroke-dashoffset:0;stroke-opacity:1" transform="rotate(-90)"/>
    <path d="M135.787 178.208v.292q-.567.102-.859.362-.418.387-.74 1.183l-3.73 9.096h-.291l-4.004-9.214q-.308-.71-.434-.868-.197-.244-.489-.378-.283-.142-.772-.181v-.292h4.367v.292q-.741.07-.962.252-.22.181-.22.465 0 .394.362 1.23l2.72 6.267 2.522-6.188q.37-.915.37-1.27 0-.228-.228-.433-.229-.213-.773-.3-.039-.008-.134-.023v-.292zm1.569-.52q.331 0 .56.236.236.229.236.56t-.236.568q-.229.236-.56.236t-.568-.236-.236-.568.229-.56q.236-.236.575-.236m.654 3.776v5.801q0 .678.095.907.102.22.292.33.197.111.709.111v.284h-3.508v-.284q.528 0 .71-.102.181-.103.283-.34.11-.236.11-.906v-2.782q0-1.175-.07-1.522-.055-.252-.174-.346-.118-.103-.323-.103-.22 0-.536.118l-.11-.283 2.176-.883zm4.478-3.776v9.577q0 .678.094.899.103.22.308.339.205.11.764.11v.284h-3.539v-.284q.497 0 .678-.102.181-.103.284-.34.102-.236.102-.906v-6.558q0-1.222-.055-1.498-.055-.284-.181-.386-.119-.103-.308-.103-.205 0-.52.127l-.134-.276 2.152-.883zm4.485 0v9.577q0 .678.094.899.103.22.308.339.205.11.765.11v.284h-3.54v-.284q.497 0 .678-.102.181-.103.284-.34.102-.236.102-.906v-6.558q0-1.222-.055-1.498-.055-.284-.181-.386-.118-.103-.308-.103-.204 0-.52.127l-.134-.276 2.152-.883zm6.093 10.168q-1.111.86-1.395.994-.426.197-.907.197-.748 0-1.237-.513-.481-.512-.481-1.348 0-.528.237-.914.323-.536 1.119-1.009.804-.473 2.664-1.15v-.285q0-1.08-.347-1.481-.339-.403-.993-.403-.496 0-.788.269-.3.268-.3.614l.016.458q0 .362-.19.56-.18.196-.48.196-.292 0-.48-.205-.182-.205-.182-.56 0-.677.694-1.245.693-.567 1.947-.567.961 0 1.576.323.465.244.686.764.142.34.142 1.388v2.451q0 1.033.04 1.27.039.228.125.307.095.079.213.079.126 0 .22-.056.166-.102.64-.575v.441q-.883 1.183-1.687 1.183-.387 0-.615-.268-.229-.268-.237-.915m0-.512v-2.75q-1.19.472-1.537.67-.623.346-.89.724-.269.379-.269.828 0 .568.34.946.338.37.78.37.599 0 1.576-.788m5.006-1.08q-.662-.323-1.017-.898-.355-.584-.355-1.285 0-1.072.804-1.845.812-.772 2.073-.772 1.033 0 1.79.504h1.529q.339 0 .394.024.055.016.079.063.047.07.047.252 0 .205-.04.284-.023.04-.086.063-.055.024-.394.024h-.938q.441.567.441 1.45 0 1.01-.772 1.726-.773.718-2.073.718-.536 0-1.096-.158-.347.3-.473.528-.118.221-.118.379 0 .134.126.26.134.126.512.181.22.032 1.104.055 1.624.04 2.104.11.734.103 1.167.545.442.441.442 1.087 0 .891-.836 1.671-1.23 1.151-3.208 1.151-1.522 0-2.57-.685-.591-.395-.591-.82 0-.19.086-.379.134-.291.552-.812.055-.07.804-.85-.41-.245-.583-.434-.166-.197-.166-.442 0-.276.221-.646.229-.37 1.04-1.049zm1.371-4.422q-.583 0-.977.465t-.394 1.427q0 1.245.536 1.931.41.52 1.04.52.6 0 .986-.449.386-.45.386-1.41 0-1.254-.544-1.964-.402-.52-1.033-.52m-1.45 7.055q-.37.402-.56.749-.189.347-.189.638 0 .379.457.663.788.488 2.278.488 1.42 0 2.09-.504.677-.497.677-1.064 0-.41-.402-.584-.41-.173-1.624-.205-1.773-.047-2.727-.181m7.433-4.501q-.008 1.608.78 2.522.789.915 1.853.915.71 0 1.23-.386.528-.395.883-1.34l.244.157q-.166 1.08-.962 1.97-.796.884-1.994.884-1.3 0-2.23-1.01-.923-1.016-.923-2.727 0-1.852.946-2.885.954-1.04 2.388-1.04 1.214 0 1.995.804.78.796.78 2.136zm0-.457h3.342q-.039-.694-.165-.978-.197-.441-.591-.693-.387-.253-.812-.253-.654 0-1.175.513-.512.504-.599 1.41" transform="scale(.9692 1.03178)"/>
  </g>
</svg>
